{
    "accessors" : [
        {
            "bufferView" : 0,
            "componentType" : 5126,
            "count" : 2532,
            "max" : [
                1.1382602453231812,
                1.1382602453231812,
                1.1382602453231812
            ],
            "min" : [
                -1.1382602453231812,
                -1.1382602453231812,
                -1.1382602453231812
            ],
            "type" : "VEC3"
        },
        {
            "bufferView" : 1,
            "componentType" : 5126,
            "count" : 2532,
            "type" : "VEC3"
        },
        {
            "bufferView" : 2,
            "componentType" : 5123,
            "count" : 4320,
            "type" : "SCALAR"
        }
    ],
    "asset" : {
        "generator" : "Khronos Blender glTF 2.0 I/O",
        "version" : "2.0"
    },
    "bufferViews" : [
        {
            "buffer" : 0,
            "byteLength" : 30384,
            "byteOffset" : 0
        },
        {
            "buffer" : 0,
            "byteLength" : 30384,
            "byteOffset" : 30384
        },
        {
            "buffer" : 0,
            "byteLength" : 8640,
            "byteOffset" : 60768
        }
    ],
    "buffers" : [
        {
            "byteLength" : 69408,
            "uri" : "untitled.bin"
        }
    ],
    "extensions" : {},
    "materials" : [
        {
            "pbrMetallicRoughness" : {}
        }
    ],
    "meshes" : [
        {
            "name" : "Solid",
            "primitives" : [
                {
                    "attributes" : {
                        "NORMAL" : 1,
                        "POSITION" : 0
                    },
                    "indices" : 2,
                    "material" : 0
                }
            ]
        }
    ],
    "nodes" : [
        {
            "mesh" : 0,
            "name" : "Solid",
            "scale" : [
                2.7796573638916016,
                2.7796573638916016,
                2.7796573638916016
            ],
            "translation" : [
                0.4247000217437744,
                0.6955184936523438,
                -0.22948813438415527
            ]
        }
    ],
    "scene" : 0,
    "scenes" : [
        {
            "name" : "Scene",
            "nodes" : [
                0
            ]
        }
    ]
}
